<svg width="70" height="70" viewBox="0 0 70 70" fill="none" xmlns="http://www.w3.org/2000/svg">
<path fill-rule="evenodd" clip-rule="evenodd" d="M3.41964 17.0191C2.53899 16.6794 1.62384 16.4122 0.680745 16.2242C0.611503 16.2105 0.542112 16.1971 0.472564 16.1841C-0.157521 16.0668 -0.157521 15.1238 0.472564 15.0065C0.542112 14.9935 0.611503 14.9802 0.680745 14.9664C1.62384 14.7784 2.53899 14.5112 3.41964 14.1715C3.94667 13.9682 4.46135 13.739 4.96226 13.4852C8.43118 11.7283 11.2405 8.79708 12.9244 5.1776C13.1676 4.65496 13.3873 4.11795 13.5821 3.56805C13.9076 2.64918 14.1637 1.69431 14.3439 0.710287C14.3571 0.63804 14.3699 0.565638 14.3823 0.493071C14.4948 -0.164357 15.3986 -0.164357 15.511 0.493071C15.5234 0.565638 15.5362 0.63804 15.5494 0.710287C15.7296 1.69431 15.9857 2.64918 16.3113 3.56805C16.5061 4.11794 16.7257 4.65496 16.969 5.1776C18.6528 8.79708 21.4621 11.7283 24.9311 13.4852C25.432 13.739 25.9467 13.9682 26.4737 14.1715C27.3543 14.5112 28.2695 14.7784 29.2126 14.9664C29.2819 14.9802 29.3512 14.9935 29.4207 15.0065C30.0509 15.1238 30.0509 16.0668 29.4207 16.1841C29.3512 16.1971 29.2819 16.2105 29.2126 16.2242C28.2695 16.4122 27.3543 16.6794 26.4737 17.0191C25.9467 17.2224 25.432 17.4516 24.9311 17.7054C21.4621 19.4623 18.6528 22.3935 16.969 26.013C16.7257 26.5357 16.5061 27.0727 16.3113 27.6225C15.9857 28.5414 15.7296 29.4963 15.5494 30.4804C15.5362 30.5525 15.5234 30.625 15.511 30.6975C15.3986 31.355 14.4948 31.355 14.3823 30.6975C14.3699 30.625 14.3571 30.5525 14.3439 30.4804C14.1637 29.4963 13.9076 28.5414 13.5821 27.6225C13.3873 27.0727 13.1676 26.5357 12.9244 26.013C11.2405 22.3935 8.43118 19.4623 4.96226 17.7054C4.46135 17.4516 3.94668 17.2224 3.41964 17.0191ZM24.4741 40.3804C23.8582 40.2072 23.2337 40.0552 22.6013 39.9252C22.5025 39.905 22.4035 39.8852 22.3044 39.866L22.2743 39.8602L22.2336 39.8524C22.1711 39.8405 22.1024 39.8277 21.965 39.802L21.917 39.7931C20.9093 39.5942 20.9093 38.0886 21.917 37.8897L21.965 37.8808C22.1024 37.8551 22.1711 37.8423 22.2336 37.8304L22.2743 37.8226L22.3044 37.8168C22.4035 37.7975 22.5025 37.7778 22.6012 37.7575C23.2336 37.6276 23.8582 37.4756 24.4741 37.3024C25.0002 37.1545 25.52 36.991 26.0332 36.8126C34.3355 33.9249 40.8687 27.1083 43.6362 18.4457C43.8072 17.9102 43.9639 17.3678 44.1056 16.8188C44.2716 16.1763 44.4173 15.5246 44.5419 14.8648C44.5613 14.7617 44.5802 14.6585 44.5987 14.555L44.6042 14.5237L44.6117 14.4812C44.623 14.4167 44.6351 14.3459 44.6591 14.2058L44.6599 14.2009L44.6685 14.1508C44.8591 13.0994 46.3021 13.0994 46.4928 14.1508L46.5014 14.2009C46.5259 14.3443 46.5382 14.416 46.5496 14.4812L46.557 14.5237L46.5626 14.555C46.5811 14.6585 46.6 14.7617 46.6194 14.8648C46.744 15.5247 46.8896 16.1763 47.0556 16.8188C47.1974 17.3678 47.3541 17.9102 47.525 18.4457C50.2926 27.1083 56.8257 33.9249 65.1281 36.8126C65.6412 36.991 66.1611 37.1545 66.6872 37.3024C67.3031 37.4756 67.9276 37.6276 68.56 37.7575C68.6588 37.7778 68.7577 37.7975 68.8569 37.8168L68.8869 37.8226L68.9276 37.8304C68.9902 37.8423 69.0589 37.8551 69.1962 37.8808L69.2442 37.8897C70.2519 38.0886 70.2519 39.5942 69.2442 39.7931L69.1962 39.802L69.0509 39.8292L68.9276 39.8524L68.8869 39.8602L68.8569 39.866C68.7577 39.8852 68.6588 39.905 68.56 39.9252C67.9276 40.0552 67.3031 40.2072 66.6872 40.3804C66.1611 40.5283 65.6412 40.6918 65.1281 40.8702C56.8257 43.7578 50.2926 50.5745 47.525 59.2371C47.3541 59.7726 47.1974 60.315 47.0556 60.864C46.8896 61.5065 46.744 62.1582 46.6194 62.818C46.6 62.9211 46.5811 63.0243 46.5626 63.1277L46.557 63.1591L46.5496 63.2016L46.533 63.2971L46.5023 63.4763L46.4928 63.5319C46.3021 64.5833 44.8591 64.5833 44.6685 63.5319L44.6599 63.4819C44.6354 63.3388 44.6231 63.2667 44.6117 63.2016L44.6042 63.1591L44.5987 63.1277C44.5802 63.0243 44.5613 62.9211 44.5419 62.818C44.4173 62.1581 44.2716 61.5065 44.1056 60.864C43.9639 60.315 43.8072 59.7726 43.6362 59.2371C40.8687 50.5745 34.3355 43.7578 26.0332 40.8702C25.52 40.6918 25.0002 40.5283 24.4741 40.3804ZM10.5782 60.5475C11.6373 60.7586 12.6405 61.128 13.5647 61.6314C13.9758 61.8553 14.3713 62.1057 14.749 62.3806C15.8016 63.1462 16.7168 64.1013 17.4508 65.1995C17.7141 65.5937 17.9542 66.0063 18.1687 66.4352C18.6512 67.3995 19.0052 68.4464 19.2075 69.5514C19.2158 69.597 19.224 69.6428 19.2318 69.6886C19.3028 70.1038 19.8736 70.1038 19.9446 69.6886C19.9524 69.6428 19.9605 69.597 19.9689 69.5514C20.1712 68.4464 20.5252 67.3995 21.0076 66.4352C21.2223 66.0063 21.4623 65.5937 21.7257 65.1995C22.4595 64.1013 23.3748 63.1462 24.4274 62.3806C24.8051 62.1057 25.2006 61.8553 25.6116 61.6314C26.5359 61.128 27.5392 60.7586 28.5983 60.5475C28.642 60.5388 28.6858 60.5304 28.7297 60.5222C29.1277 60.4482 29.1277 59.8525 28.7297 59.7785C28.6858 59.7702 28.642 59.7618 28.5983 59.7531C27.5392 59.542 26.5359 59.1726 25.6116 58.6692C25.2006 58.4453 24.8051 58.1949 24.4274 57.92C23.3748 57.1544 22.4595 56.1994 21.7257 55.1012C21.4623 54.707 21.2223 54.2943 21.0076 53.8654C20.5252 52.9011 20.1712 51.8543 19.9689 50.7492C19.9605 50.7036 19.9524 50.6579 19.9446 50.6121C19.8736 50.1968 19.3028 50.1968 19.2318 50.6121C19.224 50.6579 19.2158 50.7036 19.2075 50.7492C19.0052 51.8543 18.6512 52.9011 18.1687 53.8654C17.9542 54.2943 17.7141 54.707 17.4508 55.1012C16.7168 56.1994 15.8016 57.1544 14.749 57.92C14.3713 58.1949 13.9758 58.4453 13.5647 58.6692C12.6405 59.1726 11.6373 59.542 10.5782 59.7531C10.5344 59.7618 10.4906 59.7702 10.4466 59.7785C10.0487 59.8525 10.0487 60.4482 10.4466 60.5222C10.4906 60.5304 10.5344 60.5388 10.5782 60.5475Z" fill="white"/>
</svg>
