<svg width="83" height="83" viewBox="0 0 83 83" fill="none" xmlns="http://www.w3.org/2000/svg">
<path d="M72.0328 21.3436L77.1318 15.8259L80.8926 19.3011L72.0328 28.889" fill="white"/>
<path d="M51.3542 51.2669C50.3854 52.3152 48.6883 52.3538 47.6732 51.3496L43.4245 47.1471L47.0257 43.5065L49.391 45.8462L72.0328 21.3438V7H4V75.0328H72.0328V28.889L51.3542 51.2669ZM63.9568 20.9422L35.6059 50.1784C34.5631 51.254 32.7629 51.1868 31.8028 50.0375L22.1525 38.4859L26.0824 35.203L33.9093 44.5721L37.4598 40.9106L34.2151 37.5173L37.916 33.9784L41.0272 37.232L60.2805 17.3774L63.9568 20.9422ZM63.6201 64.0598C63.6201 65.4738 62.4738 66.6201 61.0598 66.6201H14.973C13.5588 66.6201 12.4127 65.4738 12.4127 64.0598V17.973C12.4127 16.5589 13.5589 15.4127 14.973 15.4127H41.9178V20.5335H17.5333V61.4995H58.4993V50.4044H63.6201V64.0598Z" fill="white"/>
</svg>
