<svg width="63" height="79" viewBox="0 0 63 79" fill="none" xmlns="http://www.w3.org/2000/svg">
<path d="M45.9369 12.2074C45.9369 14.8837 48.1149 17.0617 50.7949 17.0617H61.57C61.2378 16.556 60.8613 16.0761 60.4257 15.6405L47.3617 2.57269C46.9261 2.13709 46.4425 1.75687 45.9368 1.42836L45.9369 12.2074Z" fill="white"/>
<path d="M50.7953 21.0009C45.9446 21.0009 42.0021 17.0583 42.0021 12.2077V0.0849056C41.7179 0.0590648 41.4336 0 41.142 0H16.6677C11.8171 0 7.87451 3.94624 7.87451 8.79318V61.9509C7.87451 66.8015 11.8208 70.7441 16.6677 70.7441H54.207C59.0576 70.7441 63.0001 66.8015 63.0001 61.9509V21.861C63.0001 21.5694 62.9448 21.2888 62.9152 21.0009H50.7924L50.7953 21.0009Z" fill="white"/>
<path d="M47.2513 78.7542H8.26898C3.70998 78.7542 0 75.0443 0 70.4853V15.7513C0 14.666 0.878582 13.7837 1.96754 13.7837C3.05651 13.7837 3.93509 14.666 3.93509 15.7513V70.4853C3.93509 72.8736 5.87683 74.8154 8.2652 74.8154H47.2475C48.3365 74.8154 49.2151 75.6976 49.2151 76.7829C49.2151 77.8682 48.3365 78.7505 47.2475 78.7505L47.2513 78.7542Z" fill="white"/>
</svg>
