<svg width="48" height="48" viewBox="0 0 48 48" fill="none" xmlns="http://www.w3.org/2000/svg">
<path fill-rule="evenodd" clip-rule="evenodd" d="M5.1992 23.9532C5.1992 27.418 0 27.418 0 23.9532C0 20.4884 5.1992 20.4884 5.1992 23.9532Z" fill="#282242"/>
<path fill-rule="evenodd" clip-rule="evenodd" d="M7.75829 14.5742C6.02389 17.5781 1.52389 14.9765 3.25439 11.9765C4.98879 8.9726 9.49269 11.5742 7.75829 14.5742Z" fill="#282242"/>
<path fill-rule="evenodd" clip-rule="evenodd" d="M14.6212 7.7112C11.6212 9.4456 9.01962 4.9417 12.0235 3.2073C15.0235 1.4768 17.6251 5.9768 14.6212 7.7112Z" fill="#282242"/>
<path fill-rule="evenodd" clip-rule="evenodd" d="M24.0002 5.1992C20.5354 5.1992 20.5354 0 24.0002 0C27.465 0 27.465 5.1992 24.0002 5.1992Z" fill="#282242"/>
<path fill-rule="evenodd" clip-rule="evenodd" d="M33.3792 7.7112C30.3753 5.9768 32.9769 1.4768 35.9769 3.2073C38.9808 4.9417 36.3793 9.4456 33.3792 7.7112Z" fill="#282242"/>
<path fill-rule="evenodd" clip-rule="evenodd" d="M40.2423 14.5742C38.5079 11.5742 43.0118 8.9726 44.7462 11.9765C46.4767 14.9765 41.9767 17.5781 40.2423 14.5742Z" fill="#282242"/>
<path fill-rule="evenodd" clip-rule="evenodd" d="M48.0002 23.9532C48.0002 27.418 42.801 27.418 42.801 23.9532C42.801 20.4884 48.0002 20.4884 48.0002 23.9532Z" fill="#282242"/>
<path fill-rule="evenodd" clip-rule="evenodd" d="M35.9772 44.6992C32.9772 46.4297 30.3756 41.9297 33.3795 40.1953C36.3795 38.4609 38.9811 42.9648 35.9772 44.6992Z" fill="#282242"/>
<path fill-rule="evenodd" clip-rule="evenodd" d="M24.0002 47.9062C20.5354 47.9062 20.5354 42.707 24.0002 42.707C27.465 42.707 27.465 47.9062 24.0002 47.9062Z" fill="#282242"/>
<path fill-rule="evenodd" clip-rule="evenodd" d="M12.0233 44.6992C9.01938 42.9648 11.6209 38.4609 14.621 40.1953C17.6249 41.9297 15.0233 46.4297 12.0233 44.6992Z" fill="#282242"/>
<path fill-rule="evenodd" clip-rule="evenodd" d="M3.25415 35.9302C1.52365 32.9302 6.02365 30.3286 7.75805 33.3325C9.49245 36.3325 4.98855 38.9341 3.25415 35.9302Z" fill="#282242"/>
</svg>
